<svg width="40" height="40" viewBox="0 0 40 40" fill="none" xmlns="http://www.w3.org/2000/svg">
<g id="phone">
<path id="Vector" d="M29.9994 24.9738V27.9846C30.0005 28.2642 29.946 28.5408 29.8394 28.7969C29.7328 29.053 29.5765 29.2829 29.3804 29.4719C29.1844 29.6608 28.9529 29.8047 28.7009 29.8942C28.4489 29.9838 28.1818 30.017 27.9168 29.9919C24.9772 29.6563 22.1534 28.601 19.6725 26.9108C17.3643 25.3699 15.4073 23.3141 13.9406 20.8892C12.3261 18.271 11.3213 15.2901 11.0078 12.1879C10.9839 11.9104 11.0153 11.6307 11.0999 11.3666C11.1846 11.1025 11.3207 10.8599 11.4995 10.6541C11.6783 10.4483 11.896 10.2838 12.1386 10.1712C12.3813 10.0586 12.6436 10.0004 12.9088 10.0001H15.7748C16.2384 9.9953 16.6879 10.1678 17.0394 10.4854C17.3909 10.803 17.6205 11.244 17.6854 11.7263C17.8064 12.6898 18.0307 13.6359 18.3541 14.5464C18.4827 14.9056 18.5105 15.296 18.4343 15.6713C18.3581 16.0466 18.1811 16.3911 17.9242 16.664L16.711 17.9386C18.0709 20.4512 20.0512 22.5315 22.4429 23.9602L23.6561 22.6856C23.9159 22.4158 24.2438 22.2298 24.601 22.1498C24.9583 22.0698 25.3299 22.099 25.6718 22.234C26.5386 22.5738 27.4391 22.8095 28.3563 22.9365C28.8203 23.0053 29.2441 23.2509 29.5471 23.6265C29.8501 24.0021 30.011 24.4817 29.9994 24.9738Z" stroke="black" stroke-width="2" stroke-linecap="round" stroke-linejoin="round"/>
</g>
</svg>
