<svg width="40" height="41" viewBox="0 0 40 41" fill="none" xmlns="http://www.w3.org/2000/svg">
<g id="place">
<path id="Vector" d="M29 18.5C29 26 19.5 33.5 19.5 33.5C19.5 33.5 10 26 10 18.5C10 15.8478 11.0009 13.3043 12.7825 11.4289C14.5641 9.55357 16.9804 8.5 19.5 8.5C22.0196 8.5 24.4359 9.55357 26.2175 11.4289C27.9991 13.3043 29 15.8478 29 18.5Z" stroke="#037DD6" stroke-width="2" stroke-linecap="round" stroke-linejoin="round"/>
<path id="Vector_2" d="M19.5 22.5C21.433 22.5 23 20.933 23 19C23 17.067 21.433 15.5 19.5 15.5C17.567 15.5 16 17.067 16 19C16 20.933 17.567 22.5 19.5 22.5Z" stroke="#037DD6" stroke-width="2" stroke-linecap="round" stroke-linejoin="round"/>
</g>
</svg>
